<svg width="60" height="60" viewBox="0 0 60 60" fill="none" xmlns="http://www.w3.org/2000/svg">
<rect width="60" height="60" rx="16" fill="#FF4800" fill-opacity="0.15"/>
<path d="M41.5682 28.9228V41.8361C41.5682 42.8762 40.725 43.7193 39.685 43.7193H20.3151C19.275 43.7193 18.4319 42.8762 18.4319 41.8361V28.9228C18.4319 27.8827 19.275 27.0396 20.3151 27.0396H23.5434C24.1647 27.0397 24.553 27.7123 24.2423 28.2503C24.0982 28.5 23.8317 28.6538 23.5434 28.6538H20.3151C20.1665 28.6538 20.0461 28.7743 20.0461 28.9228V41.8361C20.0461 41.9847 20.1665 42.1051 20.3151 42.1051H39.685C39.8336 42.1051 39.954 41.9847 39.954 41.8361V28.9228C39.954 28.7743 39.8336 28.6538 39.685 28.6538H36.4567C35.8354 28.6538 35.4471 27.9812 35.7577 27.4432C35.9019 27.1935 36.1683 27.0396 36.4567 27.0396H39.685C40.725 27.0397 41.5682 27.8828 41.5682 28.9228ZM25.1898 23.0365L29.193 19.0348V32.1511C29.193 32.7724 29.8655 33.1607 30.4036 32.8501C30.6533 32.7059 30.8071 32.4395 30.8071 32.1511V19.0348L34.8102 23.0365C35.2338 23.4911 35.9906 23.3166 36.1724 22.7226C36.2628 22.4273 36.1768 22.1064 35.9509 21.8959L30.5704 16.5153C30.2553 16.2006 29.7448 16.2006 29.4297 16.5153L24.0492 21.8959C23.5946 22.3194 23.7691 23.0762 24.3631 23.258C24.6584 23.3484 24.9793 23.2624 25.1898 23.0365Z" fill="#FF4800"/>
</svg>
